<svg xmlns="http://www.w3.org/2000/svg" width="1200" height="420" viewBox="0 0 1200 420" role="img" aria-label="Global Node Topology">
  <defs>
    <linearGradient id="nodeBg" x1="0%" y1="0%" x2="100%" y2="100%">
      <stop offset="0%" stop-color="#020812"/>
      <stop offset="100%" stop-color="#041022"/>
    </linearGradient>
    <radialGradient id="nodeGlow" cx="50%" cy="50%" r="50%">
      <stop offset="0%" stop-color="#3ef6ff" stop-opacity="0.95"/>
      <stop offset="100%" stop-color="#3ef6ff" stop-opacity="0"/>
    </radialGradient>
  </defs>

  <rect width="1200" height="420" fill="url(#nodeBg)"/>
  <rect x="4" y="4" width="1192" height="412" rx="6" fill="none" stroke="#00cfff" stroke-opacity="0.55"/>

  <text x="18" y="42" fill="#56f5ff" font-family="monospace" font-size="40">STATUS: SECURE</text>
  <text x="18" y="82" fill="#b5e9ff" font-family="monospace" font-size="34">Tracking 54 Active Nodes</text>
  <text x="18" y="118" fill="#8dcfe0" font-family="monospace" font-size="30">Encrypted Tunnels: ACTIVE</text>

  <g stroke="#44e9ff" stroke-width="1.6" opacity="0.42">
    <line x1="44" y1="132" x2="130" y2="176"/>
    <line x1="130" y1="176" x2="88" y2="228"/>
    <line x1="88" y1="228" x2="28" y2="210"/>

    <line x1="218" y1="138" x2="300" y2="124"/>
    <line x1="300" y1="124" x2="342" y2="190"/>
    <line x1="342" y1="190" x2="274" y2="242"/>
    <line x1="274" y1="242" x2="218" y2="138"/>

    <line x1="428" y1="118" x2="502" y2="168"/>
    <line x1="502" y1="168" x2="474" y2="246"/>
    <line x1="474" y1="246" x2="404" y2="206"/>
    <line x1="404" y1="206" x2="428" y2="118"/>

    <line x1="860" y1="124" x2="938" y2="118"/>
    <line x1="938" y1="118" x2="1012" y2="132"/>
    <line x1="1012" y1="132" x2="1026" y2="202"/>
    <line x1="1026" y1="202" x2="956" y2="226"/>
    <line x1="956" y1="226" x2="904" y2="146"/>

    <line x1="808" y1="300" x2="904" y2="322"/>
    <line x1="904" y1="322" x2="998" y2="308"/>
    <line x1="998" y1="308" x2="1060" y2="246"/>
    <line x1="1060" y1="246" x2="1002" y2="218"/>
    <line x1="1002" y1="218" x2="960" y2="304"/>
    <line x1="960" y1="304" x2="1060" y2="246"/>

    <line x1="542" y1="254" x2="602" y2="218"/>
    <line x1="602" y1="218" x2="654" y2="206"/>
    <line x1="654" y1="206" x2="622" y2="252"/>
    <line x1="622" y1="252" x2="562" y2="304"/>
    <line x1="562" y1="304" x2="542" y2="254"/>

    <animate attributeName="opacity" values="0.2;0.55;0.2" dur="3.2s" repeatCount="indefinite"/>
  </g>

  <g fill="#38f0ff">
    <circle cx="44" cy="132" r="4.8"/>
    <circle cx="130" cy="176" r="4.8"/>
    <circle cx="88" cy="228" r="4.8"/>
    <circle cx="28" cy="210" r="4.8"/>

    <circle cx="218" cy="138" r="4.8"/>
    <circle cx="300" cy="124" r="4.8"/>
    <circle cx="342" cy="190" r="4.8"/>
    <circle cx="274" cy="242" r="4.8"/>

    <circle cx="428" cy="118" r="4.8"/>
    <circle cx="502" cy="168" r="4.8"/>
    <circle cx="474" cy="246" r="4.8"/>
    <circle cx="404" cy="206" r="4.8"/>

    <circle cx="860" cy="124" r="4.8"/>
    <circle cx="938" cy="118" r="4.8"/>
    <circle cx="1012" cy="132" r="4.8"/>
    <circle cx="1026" cy="202" r="4.8"/>
    <circle cx="956" cy="226" r="4.8"/>
    <circle cx="904" cy="146" r="4.8"/>

    <circle cx="808" cy="300" r="4.8"/>
    <circle cx="904" cy="322" r="4.8"/>
    <circle cx="998" cy="308" r="4.8"/>
    <circle cx="1060" cy="246" r="4.8"/>
    <circle cx="1002" cy="218" r="4.8"/>
    <circle cx="960" cy="304" r="4.8"/>

    <circle cx="542" cy="254" r="4.8"/>
    <circle cx="602" cy="218" r="4.8"/>
    <circle cx="654" cy="206" r="4.8"/>
    <circle cx="622" cy="252" r="4.8"/>
    <circle cx="562" cy="304" r="4.8"/>

    <animate attributeName="opacity" values="0.45;1;0.45" dur="2.3s" repeatCount="indefinite"/>
  </g>

  <circle cx="300" cy="124" r="20" fill="url(#nodeGlow)">
    <animate attributeName="r" values="12;26;12" dur="2.4s" repeatCount="indefinite"/>
  </circle>
  <circle cx="956" cy="226" r="20" fill="url(#nodeGlow)">
    <animate attributeName="r" values="10;24;10" dur="2.8s" repeatCount="indefinite"/>
  </circle>
  <circle cx="602" cy="218" r="20" fill="url(#nodeGlow)">
    <animate attributeName="r" values="11;22;11" dur="2.1s" repeatCount="indefinite"/>
  </circle>
</svg>
